<svg viewBox="0 0 150 33" fill="none" xmlns="http://www.w3.org/2000/svg">
  <path d="M31.0995 11.7094H35.415C36.3027 11.651 37.1773 11.9471 37.8467 12.5327C38.056 12.7381 38.2207 12.9844 38.3305 13.2563C38.4403 13.5281 38.4929 13.8196 38.485 14.1127V14.1393C38.4962 14.5556 38.3868 14.9662 38.17 15.3218C37.9531 15.6775 37.6381 15.963 37.2628 16.144C38.3395 16.5553 39.0039 17.1799 39.0039 18.4279V18.454C39.0039 20.1533 37.6223 21.0032 35.5223 21.0032H31.0984L31.0995 11.7094ZM36.4539 14.458C36.4539 13.8473 35.9756 13.502 35.1123 13.502H33.0923V15.4667H34.9812C35.885 15.4667 36.4562 15.1741 36.4562 14.484L36.4539 14.458ZM35.4573 17.1666H33.0923V19.2112H35.5234C36.4267 19.2112 36.9717 18.8931 36.9717 18.2019V18.1758C36.9717 17.5524 36.5073 17.1666 35.4578 17.1666" fill="#202524"></path>
  <path d="M46.0183 11.6426H47.9071L51.8932 21.003H49.7488L48.8988 18.919H44.9655L44.1155 21.003H42.0288L46.0183 11.6426ZM48.171 17.1125L46.9344 14.0986L45.6988 17.1125H48.171Z" fill="#202524"></path>
  <path d="M55.4507 11.7094H59.7685C60.6563 11.6511 61.5311 11.9472 62.2007 12.5327C62.4099 12.7381 62.5745 12.9845 62.6842 13.2563C62.7939 13.5281 62.8464 13.8196 62.8385 14.1126V14.1393C62.8497 14.5556 62.7403 14.9663 62.5235 15.3219C62.3066 15.6775 61.9916 15.963 61.6162 16.144C62.6923 16.5553 63.3573 17.1799 63.3573 18.4279V18.4539C63.3573 20.1533 61.9751 21.0032 59.8751 21.0032H55.4512L55.4507 11.7094ZM60.8051 14.458C60.8051 13.8473 60.3268 13.502 59.4635 13.502H57.4434V15.4667H59.3324C60.2362 15.4667 60.8074 15.1741 60.8074 14.484L60.8051 14.458ZM59.8085 17.1665H57.4434V19.2112H59.8746C60.7779 19.2112 61.3229 18.8931 61.3229 18.2019V18.1758C61.3229 17.5524 60.8585 17.1665 59.809 17.1665" fill="#202524"></path>
  <path d="M66.9016 11.709H73.9172V13.5277H68.9349V15.4152H73.3194V17.2339H68.9349V19.1858H73.9838V21.0045H66.9016V11.709Z" fill="#202524"></path>
  <path d="M77.6621 11.709H79.706V19.1425H84.3432V21.0011H77.6621V11.709Z" fill="#202524"></path>
  <path d="M88.1311 19.6492L88.7817 18.8792C89.1982 19.3003 89.695 19.6336 90.2428 19.8595C90.7905 20.0853 91.378 20.1989 91.9706 20.1938C93.2194 20.1938 94.0439 19.5276 94.0439 18.6138V18.5871C94.0439 17.7244 93.5783 17.2337 91.6256 16.8218C89.4867 16.3571 88.5028 15.6665 88.5028 14.1398V14.1126C88.5028 12.6526 89.7922 11.5772 91.5583 11.5772C92.7513 11.5427 93.9151 11.9489 94.8272 12.7181L94.2161 13.5286C93.4729 12.8791 92.5195 12.5205 91.5322 12.5193C90.3233 12.5193 89.5522 13.1827 89.5522 14.0182V14.0443C89.5522 14.9215 90.03 15.4122 92.0767 15.8508C94.1494 16.3021 95.1067 17.0588 95.1067 18.4794V18.5055C95.1067 20.0994 93.7783 21.1342 91.9306 21.1342C90.519 21.1499 89.1566 20.6168 88.1311 19.6475" fill="#202524"></path>
  <path d="M101.828 12.6788H98.7061V11.7095H106.013V12.6788H102.891V21.0061H101.828V12.6788Z" fill="#202524"></path>
  <path d="M109.839 11.7094H113.839C114.809 11.6571 115.759 11.9914 116.483 12.6388C116.717 12.8821 116.901 13.1691 117.024 13.4835C117.147 13.7978 117.207 14.1333 117.2 14.4708V14.4974C117.2 16.0374 116.138 16.9401 114.676 17.206L117.533 21.0033H116.241L113.544 17.392H110.887V21.0033H109.837L109.839 11.7094ZM113.746 16.4493C115.141 16.4493 116.138 15.7326 116.138 14.5374V14.5107C116.138 13.3693 115.261 12.6787 113.758 12.6787H110.889V16.4493H113.746Z" fill="#202524"></path>
  <path d="M121.569 11.709H128.292V12.6655H122.619V15.8393H127.695V16.7947H122.619V20.0479H128.359V21.0039H121.569V11.709Z" fill="#202524"></path>
  <path d="M132.065 11.709H138.787V12.6655H133.114V15.8393H138.19V16.7947H133.114V20.0479H138.854V21.0039H132.065V11.709Z" fill="#202524"></path>
  <path d="M145.816 12.6788H142.693V11.7095H150V12.6788H146.878V21.0061H145.816V12.6788Z" fill="#202524"></path>
  <path d="M12.7961 33.0001L17.7895 28.7682H24.5906V4.21484H12.8239L12.2861 6.82906H21.9578V26.1362H14.4195L12.7961 33.0001Z" fill="#202524"></path>
  <path d="M11.2639 0L6.315 4.19308H0V28.7642H11.2672L11.805 26.1361H2.64111V6.82895H9.65389L11.2639 0Z" fill="#202524"></path>
  <path d="M6.91218 21.878H17.7005V11.0713H9.53884V8.43824H20.3377V24.5149H4.27051V8.43213H6.91162L6.91218 21.878Z" fill="#202524"></path>
  <path d="M15.0801 13.7085H9.54346V19.2417H15.0801V13.7085Z" fill="#202524"></path>
</svg>