<svg width="110" height="35" viewBox="0 0 110 35" fill="none" xmlns="http://www.w3.org/2000/svg">
  <path d="M57.2237 14.7507C57.2237 15.8774 56.5469 16.8156 55.7823 17.2779C55.0175 17.7403 54.0859 17.9558 52.2225 17.9558C51.783 17.9558 51.5017 17.9423 51.0359 17.9288C50.8821 17.9288 50.5393 17.884 50.1614 17.8705V17.8435V12.8609V11.42V6.756V6.71107C50.4031 6.68415 50.7547 6.65271 51.1238 6.63922C51.5325 6.6123 52.1697 6.6123 52.6928 6.6123C53.3432 6.6123 54.121 6.71107 54.6967 6.88613C55.3603 7.08811 56.7754 7.7211 56.7754 9.66927C56.7754 10.6792 56.1953 11.6893 55.1362 12.008V12.0349C56.2261 12.2639 57.2281 13.2739 57.2281 14.7328V14.7507H57.2237ZM54.2572 9.91618C54.2572 9.20689 53.7914 8.82087 53.0707 8.82087C52.9432 8.82087 52.7015 8.83436 52.5741 8.84779V11.0429C52.7279 11.0563 52.8685 11.0563 52.9828 11.0563C53.1542 11.0563 53.3212 11.0429 53.5629 10.9531C53.8881 10.8364 54.2572 10.5042 54.2572 9.9296V9.91618ZM54.5693 14.3916C54.5693 13.7991 54.1606 13.3951 53.7343 13.2649C53.5365 13.2065 53.2553 13.1662 53.0575 13.1662C52.9564 13.1662 52.7059 13.1796 52.5785 13.1796V15.6485C52.5785 15.662 52.5785 15.6754 52.5916 15.6754C52.7191 15.6889 52.9169 15.6889 53.0883 15.6889C53.33 15.6889 53.6244 15.644 53.8793 15.5138C54.2177 15.3567 54.5737 15.0111 54.5737 14.4006V14.3916H54.5693Z" fill="#202524"></path>
  <path d="M69.8414 12.228C69.8414 15.5453 67.3976 18.0861 64.0619 18.0861C60.7836 18.0861 58.2698 15.5453 58.2698 12.2999C58.2698 9.05435 60.7967 6.51367 64.1632 6.51367C67.4678 6.51367 69.8414 8.98251 69.8414 12.2145V12.228ZM67.1688 12.2684C67.1688 10.4235 65.8817 8.96456 64.1017 8.96456C62.2514 8.96456 60.9374 10.3786 60.9374 12.2999C60.9374 14.1762 62.2253 15.6351 64.1017 15.6351C65.965 15.6351 67.1688 14.1628 67.1688 12.2864V12.2684Z" fill="#202524"></path>
  <path d="M80.7879 18.1265H80.4367C77.7642 12.8744 77.4702 12.1517 77.2154 11.447H77.2017C76.9469 12.1697 76.6349 12.8879 73.9369 18.1265H73.5851L71.4931 11.1732C70.3638 7.43391 70.1922 6.84584 70.1531 6.68427V6.65735H71.5813H72.838V6.68427C72.8822 6.84139 73.1059 7.42041 73.871 10.0599C74.0817 10.7961 74.2402 11.4021 74.3806 11.9812H74.4248C74.6796 11.3752 75.0177 10.6255 75.3695 9.94767C76.1868 8.34518 76.7977 7.29473 77.1054 6.72913H77.4745C77.7735 7.27679 78.336 8.25984 79.2981 10.033C79.5529 10.5088 79.9177 11.3168 80.1726 11.9363H80.2167C80.3571 11.3033 80.4584 10.8993 80.6387 10.217C81.4032 7.37555 81.6536 6.8279 81.6978 6.67975V6.65283H82.8973H84.1677V6.67975C84.1235 6.8683 83.9564 7.42939 82.8538 11.1552L80.7879 18.1265Z" fill="#202524"></path>
  <path d="M85.0551 11.415V6.68372V6.65674H88.136H90.9179V8.89222H90.8912H89.182H87.6699V11.1008H89.3094H90.509H90.5357V12.1826V13.3363H90.509H89.3355H87.6699V15.3697V15.657H89.9023H90.9751H91.0012V17.9059H88.3162H85.0508V17.879V12.8605V11.415H85.0551Z" fill="#202524"></path>
  <path d="M92.728 11.4151V6.72871V6.70179C92.9698 6.67481 93.3651 6.64344 93.7299 6.62995C94.0419 6.61645 94.7187 6.60303 95.101 6.60303C96.0065 6.60303 96.7095 6.6883 97.3471 6.86336C98.2918 7.1237 99.5927 7.94518 99.5927 10.0235C99.5927 11.2625 99.0122 12.1603 98.5771 12.5194C98.3223 12.7483 98.0283 12.9683 97.8437 13.0401V13.085C97.9444 13.2287 98.1247 13.5339 100.217 16.6761C100.511 17.125 100.951 17.7714 101.021 17.8881V17.915H99.566H98.5206H98.0805C97.29 16.6177 96.3583 15.0736 95.4528 13.5878H95.1979V14.297V17.8881V17.915H93.9673H92.728V17.8881V12.8605V11.4151ZM97.0656 10.2211C97.0656 9.34124 96.5429 8.8205 95.6945 8.8205C95.4528 8.8205 95.3253 8.83399 95.1979 8.84748V11.7203C95.2992 11.7338 95.4397 11.7338 95.5671 11.7338C95.9363 11.7338 96.2614 11.6171 96.4988 11.4465C96.7536 11.2715 97.0656 10.854 97.0656 10.2345V10.2211Z" fill="#202524"></path>
  <path d="M106.361 13.1346V13.4668V17.8838V17.9108H105.091H103.751V17.8659V13.5117V13.2827L102.705 11.4198C100.472 7.45167 100.12 6.84566 100.033 6.68854V6.66162H101.659H102.972V6.68854C103.043 6.81874 103.394 7.45167 103.918 8.4078C104.339 9.18888 104.779 9.97892 105.047 10.5714H105.073C105.342 9.97892 105.75 9.2562 106.203 8.46616C106.783 7.45612 107.165 6.77833 107.218 6.69299V6.66608H108.756H110V6.711C109.93 6.85463 109.591 7.44715 107.328 11.4288L106.361 13.1346Z" fill="#202524"></path>
  <path d="M50.2752 24.8686C50.2752 21.6276 52.6307 19.832 55.417 19.832C55.9004 19.832 56.2476 19.868 56.4585 19.8949C56.7574 19.9308 57.1265 20.0071 57.3375 20.061C57.3243 20.2899 57.3243 20.6804 57.3111 20.7568H57.2715C57.109 20.7074 56.9112 20.6535 56.7134 20.6176C56.3794 20.5547 55.9575 20.5054 55.4609 20.5054C52.7581 20.5054 51.0354 22.1618 51.0354 24.909C51.0354 27.544 52.9296 29.3261 55.3598 29.3261C55.8565 29.3261 56.3003 29.2767 56.6607 29.2004C56.8716 29.151 57.0342 29.0882 57.2056 29.0253H57.2188C57.232 29.2767 57.232 29.5056 57.2452 29.7076C57.0078 29.7839 56.7002 29.8603 56.3882 29.9097C56.041 29.959 55.6059 29.9994 55.25 29.9994C52.6615 29.9994 50.2664 28.1904 50.2664 24.8865V24.8686H50.2752Z" fill="#202524"></path>
  <path d="M62.4839 26.5384C61.429 29.1733 61.1961 29.7524 61.1697 29.8287V29.8557H60.8489H60.4402V29.8287C60.4665 29.7659 60.7258 29.1823 62.2247 25.3982L64.4435 19.814H64.5187L66.6629 25.4206C68.0999 29.1689 68.3243 29.7389 68.3504 29.8242V29.8512H67.9551H67.6077V29.8242C67.5815 29.7479 67.3621 29.1644 66.3335 26.5339H62.4839V26.5384ZM66.0787 25.9054L66.0657 25.856C64.7909 22.449 64.6281 22.0225 64.4659 21.4884H64.4392C64.2682 22.018 64.0793 22.4624 62.7517 25.856L62.7387 25.9054H66.0787Z" fill="#202524"></path>
  <path d="M71.9412 24.1596V20.0433V20.0209C72.0512 20.0074 72.1873 19.9939 72.4247 19.9849C72.7324 19.9715 73.1326 19.958 73.2687 19.958C73.8268 19.958 74.4596 20.0478 74.8816 20.2094C75.8486 20.5775 76.5907 21.4887 76.5907 22.8444C76.5907 23.3112 76.4683 23.8184 76.3055 24.1596C76.1557 24.4738 75.9232 24.7791 75.6989 24.9811C75.3782 25.2729 74.9692 25.5243 74.4863 25.6634C73.9412 25.8295 73.2948 25.8295 72.6404 25.8295V26.1078V29.8291V29.8561H72.306H71.9461V29.8291V25.4255V24.1596H71.9412ZM75.8437 22.8174C75.8437 21.8793 75.3608 21.17 74.5783 20.8289C74.2445 20.6762 73.7125 20.6134 73.1674 20.6134C73.0313 20.6134 72.7852 20.6269 72.636 20.6403V25.1741C72.7367 25.1741 72.9567 25.1876 73.1059 25.1876C73.5496 25.1876 73.963 25.1517 74.3191 25.035C74.6659 24.9227 75.0618 24.6668 75.2992 24.4021C75.646 24.0115 75.8437 23.5402 75.8437 22.8309V22.8174Z" fill="#202524"></path>
  <path d="M81.4076 25.4249V29.8285V29.8555H81.0471H80.7134V29.8196V25.4249V24.159V20.0338V19.9844H81.0471H81.4076V20.0203V24.159V25.4249Z" fill="#202524"></path>
  <path d="M88.0392 20.6268H85.8334H85.077H85.0161V19.9805H87.9646H88.8086H91.7708V20.6268H91.7092H90.8913H88.734V25.4255V29.8291V29.856H88.3997H88.0392V29.8201V25.4255V20.6268Z" fill="#202524"></path>
  <path d="M95.2555 26.5384C94.2007 29.1733 93.9677 29.7524 93.9416 29.8287V29.8557H93.6202H93.2119V29.8287C93.238 29.7659 93.4972 29.1823 94.9963 25.3982L97.2151 19.814H97.2903L99.4345 25.4206C100.871 29.1689 101.096 29.7389 101.123 29.8242V29.8512H100.727H100.38V29.8242C100.353 29.7479 100.134 29.1644 99.1051 26.5339H95.2555V26.5384ZM98.846 25.9054L98.8329 25.856C97.5582 22.449 97.3953 22.0225 97.2331 21.4884H97.2064C97.0355 22.018 96.8465 22.4624 95.519 25.856L95.5059 25.9054H98.846Z" fill="#202524"></path>
  <path d="M104.708 24.159V20.0338V19.9844H105.043H105.403V20.0338V24.159V25.4249V29.1103C105.403 29.1731 105.416 29.1866 105.451 29.1866H108.079H108.598H108.897H108.932V29.8555H106.923H104.704V29.7926V25.4249V24.159H104.708Z" fill="#202524"></path>
  <path fill-rule="evenodd" clip-rule="evenodd" d="M0 0H42.3563V35H0V0ZM37.0475 5.83571L38.5066 6.67513L26.1662 29.8603L24.7072 29.0209L37.0475 5.83571ZM7.23362 20.0206V15.3656C7.23362 12.2638 7.23362 10.6792 7.14132 8.91061C7.11056 8.10256 6.96114 7.48312 5.83608 7.48312C5.26038 7.48312 4.71104 7.48312 4.16609 7.57736V6.45966C5.44056 6.52246 7.5105 6.61677 9.27275 6.61677C10.0883 6.61677 10.9745 6.58065 11.8971 6.54304L11.8971 6.54304C12.8986 6.50222 13.9428 6.45966 14.9859 6.45966C16.7789 6.45966 22.6151 6.45966 22.6151 12.1112C22.6151 16.1153 18.7258 17.0176 17.6008 17.0445V17.1074C21.0638 17.8839 23.2831 19.3742 23.2831 23.2527C23.2787 28.59 18.6027 29.178 15.4078 29.178C14.1649 29.178 12.9123 29.1347 11.7217 29.0936L11.7216 29.0936L11.7213 29.0936C10.643 29.0564 9.61574 29.0209 8.69263 29.0209C6.80732 29.0209 5.19886 29.1152 4.16609 29.178V28.0603C4.53086 28.1545 4.95714 28.1545 5.47132 28.1545C7.03939 28.1545 7.07878 27.3269 7.13678 26.1083L7.14132 26.0133C7.20285 24.523 7.23362 22.1932 7.23362 20.0206ZM11.3075 16.7302C14.375 16.7302 18.0534 16.5148 18.0534 12.0438C18.0534 9.12608 16.1681 7.38887 13.5269 7.38887C11.3383 7.38887 11.3075 8.03975 11.3075 12.6947V16.7302ZM11.3075 22.9699C11.3075 28.1545 11.7645 28.1545 13.6763 28.1545C16.4405 28.1545 18.5061 26.9425 18.5061 23.1898C18.5061 17.6011 13.6455 17.6011 11.3031 17.6011V22.9699H11.3075Z" fill="#202524"></path>
</svg>