<svg xmlns="http://www.w3.org/2000/svg" width="208" height="23" viewBox="0 0 208 23" fill="none">
  <g clip-path="url(#clip0_1417_7643)">
    <path d="M59.6454 4.66699C61.9096 4.66699 63.4587 5.38574 64.8887 6.70345C65.1271 6.94303 65.1271 7.06283 64.8887 7.18262L63.2204 8.97949C63.1012 9.09928 62.8629 9.09928 62.7437 8.97949C61.9096 8.26074 60.8371 7.78158 59.8837 7.78158C57.3812 7.78158 55.5937 9.81803 55.5937 12.3337C55.5937 14.8493 57.3812 16.8857 60.0029 16.8857C61.0754 16.8857 62.1479 16.5264 62.8629 15.8076C62.9821 15.6878 63.2204 15.6878 63.3396 15.8076L65.0079 17.6045C65.1271 17.7243 65.1271 17.9639 65.0079 18.0837C63.5779 19.5212 61.5521 20.2399 59.6454 20.2399C55.2362 20.2399 51.5421 16.766 51.5421 12.2139C51.5421 7.66178 55.3554 4.66699 59.6454 4.66699Z" fill="black"></path>
    <path d="M74.5412 17.2451C77.0437 17.2451 78.9504 15.2087 78.9504 12.8128C78.9504 10.2972 76.9246 8.38053 74.5412 8.38053C72.1579 8.38053 70.1321 10.417 70.1321 12.8128C70.1321 15.2087 72.1579 17.2451 74.5412 17.2451ZM74.5412 4.66699C78.9504 4.66699 82.6446 8.26074 82.6446 12.8128C82.6446 17.3649 79.1887 20.8389 74.5412 20.8389C69.8937 20.8389 66.5571 17.3649 66.5571 12.8128C66.5571 8.26074 70.1321 4.66699 74.5412 4.66699Z" fill="black"></path>
    <path d="M90.7479 17.2451C93.2504 17.2451 95.0379 15.3284 95.0379 12.693C95.0379 10.1774 93.2504 8.14095 90.7479 8.14095H88.6029V17.0055L90.7479 17.2451ZM85.0279 5.38574C85.0279 5.14616 85.2662 5.02637 85.3854 5.02637H90.7479C95.0379 5.02637 98.4937 8.50032 98.4937 12.693C98.4937 17.0055 95.0379 20.4795 90.7479 20.4795H85.3854C85.1471 20.4795 85.0279 20.2399 85.0279 20.1201V5.38574Z" fill="black"></path>
    <path d="M101.354 5.38574C101.354 5.14616 101.592 5.02637 101.711 5.02637H110.887C111.125 5.02637 111.245 5.26595 111.245 5.38574V7.78158C111.245 8.02116 111.006 8.14095 110.887 8.14095H104.81V11.016H109.815C110.053 11.016 110.172 11.2555 110.172 11.3753V13.7712C110.172 14.0107 109.934 14.1305 109.815 14.1305H104.81V17.1253H110.887C111.125 17.1253 111.245 17.3649 111.245 17.4847V19.8805C111.245 20.1201 111.006 20.2399 110.887 20.2399H101.711C101.473 20.2399 101.354 20.0003 101.354 19.8805V5.38574Z" fill="black"></path>
    <path d="M126.021 4.66699C128.285 4.66699 129.835 5.38574 131.265 6.70345C131.503 6.94303 131.503 7.06283 131.265 7.18262L129.596 8.97949C129.477 9.09928 129.239 9.09928 129.12 8.97949C128.285 8.26074 127.213 7.78158 126.26 7.78158C123.757 7.78158 121.97 9.81803 121.97 12.3337C121.97 14.8493 123.638 17.0055 126.26 17.0055C127.332 17.0055 128.405 16.6462 129.12 15.9274C129.239 15.8076 129.477 15.8076 129.596 15.9274L131.265 17.7243C131.384 17.8441 131.384 18.0837 131.265 18.2035C129.835 19.641 127.809 20.3597 125.902 20.3597C121.493 20.3597 117.799 16.8857 117.799 12.3337C117.799 7.78158 121.612 4.66699 126.021 4.66699Z" fill="black"></path>
    <path d="M134.125 5.38574C134.125 5.14616 134.363 5.02637 134.601 5.02637H137.223C137.461 5.02637 137.58 5.26595 137.58 5.38574V17.3649H142.824C143.062 17.3649 143.181 17.6045 143.181 17.7243V20.0003C143.181 20.2399 142.943 20.3597 142.824 20.3597H134.482C134.244 20.3597 134.125 20.1201 134.125 20.0003V5.38574Z" fill="black"></path>
    <path d="M145.445 5.38574C145.445 5.14616 145.684 5.02637 145.803 5.02637H148.544C148.782 5.02637 148.901 5.26595 148.901 5.38574V20.1201C148.901 20.3597 148.663 20.4795 148.544 20.4795H145.803C145.565 20.4795 145.445 20.2399 145.445 20.1201V5.38574Z" fill="black"></path>
    <path d="M154.145 5.02637C154.145 4.78678 154.383 4.66699 154.502 4.66699H154.86C154.979 4.66699 155.217 4.78678 155.217 4.90658L160.222 14.6097L165.227 4.90658C165.346 4.78678 165.465 4.66699 165.585 4.66699H165.942C166.18 4.66699 166.3 4.78678 166.3 5.02637L168.802 20.0003C168.802 20.3597 168.683 20.3597 168.445 20.3597H165.823C165.585 20.3597 165.465 20.1201 165.465 20.0003L164.393 13.1722L160.699 20.4795C160.58 20.5993 160.46 20.7191 160.341 20.7191H159.984C159.865 20.7191 159.626 20.5993 159.626 20.4795L155.932 13.1722L154.86 20.1201C154.86 20.3597 154.621 20.4795 154.502 20.4795H151.88C151.642 20.4795 151.523 20.2399 151.523 20.1201L154.145 5.02637Z" fill="black"></path>
    <path d="M179.17 15.0889L177.501 11.4952L175.833 15.0889H179.17ZM169.994 19.8806L176.905 5.02645C177.025 4.90666 177.144 4.78687 177.263 4.78687H177.501C177.62 4.78687 177.859 4.90666 177.859 5.02645L184.77 20.0004C184.89 20.3598 184.77 20.4796 184.413 20.4796H181.91C181.553 20.4796 181.434 20.3598 181.076 20.0004L180.242 18.3233H174.403L173.569 20.1202C173.45 20.3598 173.211 20.5994 172.735 20.5994H170.232C169.994 20.4796 169.994 20.24 169.994 19.8806Z" fill="black"></path>
    <path d="M187.869 8.14095H184.651C184.413 8.14095 184.294 7.90137 184.294 7.78158V5.38574C184.294 5.14616 184.532 5.02637 184.651 5.02637H194.423C194.661 5.02637 194.78 5.26595 194.78 5.38574V7.78158C194.78 8.02116 194.542 8.14095 194.423 8.14095H191.205V20.0003C191.205 20.2399 190.967 20.3597 190.848 20.3597H188.226C187.988 20.3597 187.869 20.1201 187.869 20.0003V8.14095Z" fill="black"></path>
    <path d="M197.164 5.38574C197.164 5.14616 197.402 5.02637 197.521 5.02637H206.697C206.935 5.02637 207.055 5.26595 207.055 5.38574V7.78158C207.055 8.02116 206.816 8.14095 206.697 8.14095H200.62V11.016H205.625C205.863 11.016 205.982 11.2555 205.982 11.3753V13.7712C205.982 14.0107 205.744 14.1305 205.625 14.1305H200.62V17.1253H206.697C206.935 17.1253 207.055 17.3649 207.055 17.4847V19.8805C207.055 20.1201 206.816 20.2399 206.697 20.2399H197.521C197.283 20.2399 197.164 20.0003 197.164 19.8805V5.38574Z" fill="black"></path>
    <path d="M28.5429 -0.00488281L20.6779 7.90137L25.3254 12.5732L28.5429 9.33887L37.5995 18.443L42.247 13.6514L28.5429 -0.00488281Z" fill="black"></path>
    <path d="M19.2478 9.26221L14.6003 4.59033L2.56451 16.4497L0.896179 18.4862L5.54368 23.0382L7.33118 21.2414L13.2895 15.132L14.6003 14.0539L19.2478 18.7257L23.657 23.0382L28.3045 18.4862L23.8953 14.0539L19.2478 9.26221Z" fill="black"></path>
  </g>
  <defs>
    <clipPath id="clip0_1417_7643">
      <rect width="208" height="23" fill="white"></rect>
    </clipPath>
  </defs>
</svg>