<svg width="390" height="116" viewBox="0 0 390 116" fill="none" xmlns="http://www.w3.org/2000/svg">
<path d="M18.8047 44.916C16.3503 44.916 14.0563 44.6139 11.9229 44.0097C9.80827 43.4056 8.01465 42.6881 6.54199 41.8574L4.58789 43.8398H2.18066L1.8125 29.3115H4.24805C4.79557 30.6897 5.49414 32.1435 6.34375 33.6728C7.19336 35.2021 8.17513 36.5709 9.28906 37.7793C10.4408 39.0442 11.7246 40.0732 13.1406 40.8662C14.5755 41.6591 16.2464 42.0556 18.1533 42.0556C20.721 42.0556 22.6846 41.4326 24.0439 40.1865C25.4222 38.9215 26.1113 37.3356 26.1113 35.4287C26.1113 33.8616 25.526 32.5494 24.3555 31.4921C23.2038 30.416 21.4102 29.4908 18.9746 28.7168C17.3887 28.207 15.9255 27.735 14.585 27.3007C13.2633 26.8665 12.0173 26.4228 10.8467 25.9697C8.14681 24.8935 6.13607 23.3548 4.81445 21.3535C3.51172 19.3522 2.86035 17.1149 2.86035 14.6416C2.86035 13.0745 3.2002 11.5735 3.87988 10.1386C4.55957 8.6849 5.55078 7.38217 6.85352 6.23047C8.09961 5.1543 9.69499 4.27637 11.6396 3.59669C13.5843 2.917 15.6989 2.57715 17.9834 2.57715C20.2113 2.57715 22.2975 2.88868 24.2422 3.51173C26.1868 4.11589 27.7161 4.7295 28.8301 5.35255L30.5576 3.65333H33.0215L33.248 17.3603H30.8125C30.2461 15.8877 29.5758 14.3867 28.8018 12.8574C28.0465 11.3092 27.2441 10.0253 26.3945 9.00585C25.4694 7.91081 24.4027 7.04232 23.1943 6.4004C21.986 5.73959 20.57 5.40919 18.9463 5.40919C16.9072 5.40919 15.2363 5.98503 13.9336 7.13673C12.6497 8.28842 12.0078 9.71385 12.0078 11.413C12.0078 13.0179 12.5648 14.33 13.6787 15.3496C14.8115 16.3691 16.5674 17.2659 18.9463 18.04C20.3434 18.512 21.7689 18.984 23.2227 19.456C24.6764 19.928 25.9697 20.3811 27.1025 20.8154C29.8402 21.8727 31.917 23.3359 33.333 25.205C34.7679 27.0553 35.4854 29.3587 35.4854 32.1152C35.4854 33.8522 35.0794 35.5325 34.2676 37.1562C33.4557 38.7799 32.3607 40.1298 30.9824 41.206C29.472 42.3955 27.7256 43.3112 25.7432 43.9531C23.7607 44.595 21.4479 44.916 18.8047 44.916ZM60.6904 44.916C57.7451 44.916 54.9886 44.444 52.4209 43.5C49.8532 42.5371 47.6159 41.1494 45.709 39.3369C43.8398 37.5621 42.3672 35.372 41.291 32.7666C40.2148 30.1422 39.6768 27.263 39.6768 24.1289C39.6768 21.0136 40.2148 18.1344 41.291 15.4912C42.3861 12.8291 43.9154 10.5257 45.8789 8.58106C47.8047 6.67416 50.1175 5.2015 52.8174 4.16309C55.5173 3.1058 58.4059 2.57715 61.4834 2.57715C63.7113 2.57715 65.7409 2.85092 67.5723 3.39844C69.4036 3.92709 70.9518 4.53126 72.2168 5.21094L73.9727 3.65333H76.4365L76.6914 18.3232H74.1992C72.7832 13.8486 71.084 10.5634 69.1016 8.46778C67.1191 6.37208 64.7025 5.32423 61.8516 5.32423C58.3021 5.32423 55.6022 6.89128 53.752 10.0253C51.9017 13.1406 50.9766 17.5208 50.9766 23.166C50.9766 26.3567 51.2881 29.0849 51.9111 31.3505C52.5531 33.5973 53.3838 35.4098 54.4033 36.788C55.4984 38.2229 56.7917 39.2802 58.2832 39.9599C59.7747 40.6207 61.4268 40.9511 63.2393 40.9511C65.8825 40.9511 68.2331 40.2337 70.291 38.7988C72.3678 37.3639 74.2559 35.1927 75.9551 32.2851L78.3906 33.7578C77.5788 35.4192 76.6536 36.9108 75.6152 38.2324C74.5768 39.5351 73.3779 40.6585 72.0186 41.6025C70.527 42.6409 68.875 43.4528 67.0625 44.038C65.2689 44.6233 63.1449 44.916 60.6904 44.916ZM118.266 8.12794C120.248 9.94045 121.815 12.1305 122.967 14.6982C124.137 17.2659 124.723 20.1923 124.723 23.4775C124.723 26.4039 124.232 29.1888 123.25 31.832C122.268 34.4752 120.852 36.7503 119.002 38.6572C117.057 40.6396 114.773 42.1878 112.148 43.3017C109.524 44.3968 106.399 44.9443 102.774 44.9443C99.848 44.9443 97.082 44.4628 94.4766 43.5C91.8711 42.5371 89.5771 41.1399 87.5947 39.3086C85.6312 37.5149 84.0736 35.3343 82.9219 32.7666C81.7702 30.1988 81.1943 27.3385 81.1943 24.1855C81.1943 20.9003 81.7513 17.9267 82.8652 15.2646C83.998 12.5836 85.5462 10.2897 87.5098 8.38282C89.4544 6.51368 91.7578 5.07878 94.4199 4.07813C97.1009 3.0586 99.9518 2.54883 102.973 2.54883C105.975 2.54883 108.788 3.03972 111.412 4.02149C114.055 5.00326 116.34 6.37208 118.266 8.12794ZM110.987 36.873C111.837 35.1549 112.451 33.2102 112.828 31.039C113.206 28.8678 113.395 26.4134 113.395 23.6757C113.395 21.3535 113.225 19.0973 112.885 16.9072C112.564 14.6982 112.007 12.7347 111.214 11.0166C110.402 9.29855 109.326 7.92025 107.985 6.88184C106.645 5.84343 104.974 5.32423 102.973 5.32423C99.5553 5.32423 96.9593 6.94792 95.1846 10.1953C93.4098 13.4238 92.5225 17.9928 92.5225 23.9023C92.5225 26.4134 92.7113 28.7828 93.0889 31.0107C93.4854 33.2386 94.099 35.1832 94.9297 36.8447C95.7793 38.525 96.8555 39.8372 98.1582 40.7812C99.4609 41.7063 101.066 42.1689 102.973 42.1689C104.842 42.1689 106.447 41.6969 107.787 40.7529C109.128 39.8089 110.194 38.5156 110.987 36.873ZM166.07 15.1513H163.89C163.304 13.4332 162.36 11.5924 161.058 9.62895C159.774 7.66537 158.584 6.60808 157.489 6.45704C156.885 6.38152 156.139 6.31544 155.252 6.2588C154.365 6.20215 153.6 6.17383 152.958 6.17383H151.627V37.6943C151.627 38.374 151.75 38.9781 151.995 39.5068C152.241 40.0166 152.722 40.4225 153.439 40.7246C153.874 40.8945 154.544 41.0738 155.45 41.2627C156.375 41.4326 157.159 41.5553 157.801 41.6308V43.8398H135.399V41.6308C135.947 41.5742 136.712 41.4987 137.693 41.4043C138.694 41.291 139.374 41.1588 139.732 41.0078C140.469 40.7057 140.96 40.2998 141.205 39.79C141.451 39.2802 141.573 38.6761 141.573 37.9775V6.17383H140.242C139.6 6.17383 138.836 6.20215 137.948 6.2588C137.061 6.31544 136.315 6.38152 135.711 6.45704C134.616 6.60808 133.417 7.66537 132.114 9.62895C130.83 11.5924 129.896 13.4332 129.311 15.1513H127.13V3.65333H166.07V15.1513ZM214.696 5.86231C214.149 5.91895 213.356 6.05111 212.317 6.2588C211.298 6.4476 210.439 6.78744 209.74 7.27833C209.023 7.75033 208.513 8.59994 208.211 9.82715C207.928 11.0543 207.786 12.8951 207.786 15.3496V30.3027C207.786 34.7018 206.295 38.2418 203.312 40.9228C200.328 43.6038 196.382 44.9443 191.474 44.9443C185.753 44.9443 181.326 43.651 178.191 41.0644C175.057 38.4778 173.49 34.8717 173.49 30.246V9.68555C173.49 9.02475 173.358 8.45834 173.094 7.98633C172.848 7.51433 172.367 7.08952 171.649 6.71192C171.159 6.46648 170.554 6.26824 169.837 6.11719C169.119 5.96615 168.534 5.86231 168.081 5.80567V3.65333H189.151V5.80567C188.547 5.84343 187.934 5.91895 187.311 6.03223C186.688 6.12663 186.055 6.27768 185.413 6.48536C184.696 6.71192 184.214 7.08952 183.969 7.61817C183.723 8.14682 183.601 8.74154 183.601 9.40235V29.6796C183.601 33.6634 184.479 36.5615 186.234 38.374C187.99 40.1865 190.539 41.0927 193.881 41.0927C197.166 41.0927 199.743 40.0921 201.612 38.0908C203.481 36.0895 204.416 33.1442 204.416 29.2548V15.6328C204.416 13.2161 204.246 11.413 203.906 10.2236C203.585 9.01535 203.085 8.14682 202.405 7.61817C201.914 7.20281 201.055 6.8252 199.828 6.48536C198.62 6.14551 197.77 5.93783 197.279 5.86231V3.65333H214.696V5.86231ZM233.643 44.916C231.188 44.916 228.894 44.6139 226.761 44.0097C224.646 43.4056 222.853 42.6881 221.38 41.8574L219.426 43.8398H217.019L216.65 29.3115H219.086C219.633 30.6897 220.332 32.1435 221.182 33.6728C222.031 35.2021 223.013 36.5709 224.127 37.7793C225.279 39.0442 226.562 40.0732 227.979 40.8662C229.413 41.6591 231.084 42.0556 232.991 42.0556C235.559 42.0556 237.522 41.4326 238.882 40.1865C240.26 38.9215 240.949 37.3356 240.949 35.4287C240.949 33.8616 240.364 32.5494 239.193 31.4921C238.042 30.416 236.248 29.4908 233.812 28.7168C232.227 28.207 230.763 27.735 229.423 27.3007C228.101 26.8665 226.855 26.4228 225.685 25.9697C222.985 24.8935 220.974 23.3548 219.652 21.3535C218.35 19.3522 217.698 17.1149 217.698 14.6416C217.698 13.0745 218.038 11.5735 218.718 10.1386C219.397 8.6849 220.389 7.38217 221.691 6.23047C222.938 5.1543 224.533 4.27637 226.478 3.59669C228.422 2.917 230.537 2.57715 232.821 2.57715C235.049 2.57715 237.135 2.88868 239.08 3.51173C241.025 4.11589 242.554 4.7295 243.668 5.35255L245.396 3.65333H247.859L248.086 17.3603H245.65C245.084 15.8877 244.414 14.3867 243.64 12.8574C242.884 11.3092 242.082 10.0253 241.232 9.00585C240.307 7.91081 239.241 7.04232 238.032 6.4004C236.824 5.73959 235.408 5.40919 233.784 5.40919C231.745 5.40919 230.074 5.98503 228.771 7.13673C227.488 8.28842 226.846 9.71385 226.846 11.413C226.846 13.0179 227.403 14.33 228.517 15.3496C229.649 16.3691 231.405 17.2659 233.784 18.04C235.181 18.512 236.607 18.984 238.061 19.456C239.514 19.928 240.808 20.3811 241.94 20.8154C244.678 21.8727 246.755 23.3359 248.171 25.205C249.606 27.0553 250.323 29.3587 250.323 32.1152C250.323 33.8522 249.917 35.5325 249.105 37.1562C248.294 38.7799 247.199 40.1298 245.82 41.206C244.31 42.3955 242.563 43.3112 240.581 43.9531C238.599 44.595 236.286 44.916 233.643 44.916Z" fill="#031C42"></path>
<path d="M287.933 29.9912C287.933 34.2392 286.526 37.7604 283.713 40.5546C280.919 43.3489 277.369 44.746 273.064 44.746C271.403 44.746 269.968 44.6233 268.76 44.3779C267.57 44.1513 266.56 43.8681 265.729 43.5283C264.861 43.1696 264.162 42.8203 263.634 42.4804C263.124 42.1217 262.718 41.8291 262.416 41.6025L258.366 45.2841L256.695 44.6328C256.79 43.2545 256.865 41.763 256.922 40.1582C256.997 38.5345 257.035 36.3538 257.035 33.6162V7.10839C257.035 6.39095 256.884 5.73014 256.582 5.12597C256.299 4.50293 255.912 4.03092 255.421 3.70996C255.062 3.48339 254.534 3.28515 253.835 3.11523C253.155 2.94531 252.523 2.84147 251.938 2.80371V0.73632L265.928 0L266.353 0.45312V18.8613H266.522C267.901 17.5208 269.317 16.539 270.771 15.916C272.224 15.2929 273.678 14.9814 275.132 14.9814C279.097 14.9814 282.221 16.3313 284.506 19.0312C286.79 21.7311 287.933 25.3844 287.933 29.9912ZM277.766 30.331C277.766 28.8961 277.652 27.5179 277.426 26.1962C277.218 24.8558 276.859 23.6757 276.35 22.6562C275.84 21.6367 275.17 20.8248 274.339 20.2207C273.508 19.5976 272.479 19.2861 271.252 19.2861C270.1 19.2861 269.147 19.4749 268.392 19.8525C267.636 20.2301 266.957 20.7871 266.353 21.5234V38.0058C266.466 38.3834 266.674 38.8837 266.976 39.5068C267.297 40.111 267.618 40.583 267.938 40.9228C268.392 41.4137 268.873 41.7913 269.383 42.0556C269.893 42.3011 270.61 42.4238 271.535 42.4238C273.461 42.4238 274.981 41.3759 276.095 39.2802C277.209 37.1656 277.766 34.1826 277.766 30.331ZM308.833 43.8398H291.076V41.7724C291.567 41.7347 292.039 41.6875 292.492 41.6308C292.964 41.5742 293.38 41.4798 293.738 41.3476C294.342 41.121 294.748 40.8001 294.956 40.3847C295.183 39.9505 295.296 39.3841 295.296 38.6855V7.30664C295.296 6.58919 295.145 5.92838 294.843 5.32422C294.56 4.70117 294.173 4.22916 293.682 3.9082C293.304 3.66276 292.728 3.42675 291.954 3.20019C291.199 2.97363 290.529 2.84147 289.943 2.80371V0.73632L304.188 0L304.613 0.45312V38.3173C304.613 39.0159 304.736 39.5823 304.981 40.0166C305.227 40.4508 305.623 40.7906 306.171 41.0361C306.549 41.206 306.945 41.3571 307.36 41.4892C307.776 41.6214 308.267 41.7158 308.833 41.7724V43.8398ZM340.495 19.0878C341.892 20.3906 342.959 21.9482 343.695 23.7607C344.432 25.5732 344.8 27.5367 344.8 29.6513C344.8 31.747 344.432 33.7294 343.695 35.5986C342.978 37.4488 341.921 39.0348 340.523 40.3564C339.032 41.7724 337.248 42.858 335.171 43.6132C333.113 44.3684 330.753 44.746 328.091 44.746C325.787 44.746 323.663 44.4156 321.719 43.7548C319.793 43.094 318.084 42.1028 316.593 40.7812C315.158 39.5162 314.025 37.9586 313.194 36.1084C312.364 34.2392 311.948 32.153 311.948 29.8496C311.948 27.5839 312.307 25.5732 313.024 23.8173C313.761 22.0426 314.856 20.4661 316.31 19.0878C317.707 17.7662 319.425 16.7467 321.464 16.0293C323.522 15.2929 325.816 14.9248 328.346 14.9248C330.989 14.9248 333.311 15.2929 335.312 16.0293C337.333 16.7467 339.06 17.7662 340.495 19.0878ZM333.245 38.7138C333.66 37.6565 333.963 36.3727 334.151 34.8623C334.359 33.3518 334.463 31.596 334.463 29.5947C334.463 28.2731 334.368 26.7627 334.18 25.0634C333.991 23.3642 333.708 22.0237 333.33 21.0419C332.877 19.8525 332.244 18.9179 331.433 18.2382C330.64 17.5586 329.63 17.2187 328.402 17.2187C327.062 17.2187 325.986 17.5869 325.174 18.3232C324.381 19.0595 323.767 20.013 323.333 21.1836C322.937 22.2597 322.663 23.5247 322.512 24.9785C322.361 26.4134 322.285 27.9143 322.285 29.4814C322.285 31.5393 322.351 33.248 322.483 34.6074C322.616 35.9479 322.937 37.2978 323.446 38.6572C323.881 39.8278 324.504 40.7529 325.315 41.4326C326.127 42.1123 327.156 42.4521 328.402 42.4521C329.535 42.4521 330.507 42.1406 331.319 41.5175C332.131 40.8756 332.773 39.941 333.245 38.7138ZM380.172 18.9179H373.941C374.678 19.7487 375.225 20.6266 375.584 21.5517C375.962 22.4768 376.15 23.4397 376.15 24.4404C376.15 25.7431 375.801 26.9703 375.103 28.122C374.404 29.2548 373.488 30.18 372.355 30.8974C371.204 31.6337 369.854 32.2096 368.306 32.625C366.757 33.0403 365.077 33.248 363.265 33.248H358.648C358.422 33.4179 358.167 33.6917 357.884 34.0693C357.619 34.428 357.487 34.7773 357.487 35.1171C357.487 35.9479 357.818 36.5237 358.479 36.8447C359.139 37.1656 360.338 37.345 362.075 37.3828C363.793 37.4205 365.53 37.496 367.286 37.6093C369.042 37.7037 370.298 37.7604 371.053 37.7793C372.148 37.8359 373.233 38.0625 374.31 38.4589C375.386 38.8365 376.32 39.3369 377.113 39.9599C377.982 40.6207 378.699 41.4703 379.266 42.5087C379.832 43.5283 380.115 44.7083 380.115 46.0488C380.115 47.4837 379.766 48.8336 379.067 50.0986C378.388 51.3636 377.34 52.4586 375.924 53.3837C374.432 54.3466 372.639 55.0924 370.543 55.621C368.466 56.1497 365.889 56.414 362.812 56.414C357.846 56.414 354.07 55.8099 351.483 54.6015C348.897 53.3932 347.604 51.5807 347.604 49.164C347.604 47.6725 348.302 46.4453 349.699 45.4824C351.096 44.5195 353.268 43.9908 356.213 43.8964V43.5566C354.476 42.9713 353.117 42.1972 352.135 41.2343C351.172 40.2526 350.69 39.1197 350.69 37.8359C350.69 37.0429 350.879 36.3727 351.257 35.8252C351.653 35.2776 352.154 34.7962 352.758 34.3808C353.286 34.0221 353.928 33.72 354.684 33.4746C355.439 33.2102 356.071 33.0026 356.581 32.8515V32.54C354.032 31.596 352.154 30.4443 350.945 29.0849C349.756 27.7255 349.161 26.0641 349.161 24.1005C349.161 21.3252 350.436 19.1067 352.984 17.4453C355.552 15.7838 358.799 14.9531 362.727 14.9531C364.01 14.9531 365.247 15.0664 366.437 15.2929C367.645 15.5006 368.561 15.6894 369.184 15.8593H380.172V18.9179ZM366.89 24.3271C366.89 22.1181 366.54 20.3717 365.842 19.0878C365.143 17.804 364.067 17.1621 362.613 17.1621C361.877 17.1621 361.235 17.3414 360.688 17.7002C360.14 18.04 359.696 18.5403 359.356 19.2011C359.035 19.8431 358.818 20.5983 358.705 21.4668C358.592 22.3164 358.535 23.1943 358.535 24.1005C358.535 26.1585 358.894 27.8483 359.611 29.1699C360.329 30.4915 361.348 31.1523 362.67 31.1523C364.029 31.1523 365.068 30.5576 365.785 29.3681C366.521 28.1787 366.89 26.4983 366.89 24.3271ZM371.647 48.1162C371.647 47.4742 371.468 46.8323 371.109 46.1904C370.751 45.5673 369.948 45.0576 368.702 44.6611C368.022 44.5478 366.899 44.4723 365.332 44.4345C363.784 44.3968 361.65 44.3779 358.932 44.3779C358.271 44.9443 357.714 45.6145 357.261 46.3886C356.826 47.1627 356.609 48.0973 356.609 49.1923C356.609 49.6643 356.742 50.1836 357.006 50.75C357.27 51.3164 357.686 51.845 358.252 52.3359C358.913 52.8834 359.649 53.3082 360.461 53.6103C361.273 53.9313 362.5 54.0918 364.143 54.0918C366.578 54.0918 368.438 53.6197 369.722 52.6757C371.006 51.7317 371.647 50.2119 371.647 48.1162Z" fill="#ED2B3B"></path>
<path d="M0 71.8398H390" stroke="#031C42"></path>
<path d="M12.726 90.9398L18.477 107.032C19.125 108.814 19.584 109.381 20.826 109.651V109.84H13.185V109.651C14.778 109.327 15.102 108.517 14.4 106.438L13.185 102.928H6.46203L5.19303 106.6C4.49103 108.652 5.22003 109.381 6.75903 109.651V109.84H1.54803V109.651C2.95203 109.354 3.60003 108.571 4.30203 106.573L9.83703 90.9398H12.726ZM9.83703 93.1538L6.70503 102.253H12.969L9.83703 93.1538ZM27.6655 90.9398H35.2525C41.4355 90.9398 45.1075 94.4768 45.1075 100.363C45.1075 106.546 41.0575 109.84 35.2795 109.84H27.6655V109.651C29.1235 109.435 29.6095 108.949 29.6095 107.032V93.5588C29.6095 91.9118 29.1505 91.3718 27.6655 91.1288V90.9398ZM33.1735 109.273H34.4695C39.1135 109.273 41.1925 107.113 41.1925 100.579C41.1925 93.8558 39.0055 91.5068 34.4695 91.5068H33.1735V109.273ZM53.97 90.9398V91.1288C52.485 91.3718 52.026 92.0198 52.026 93.5588V107.032C52.026 108.706 52.512 109.435 53.97 109.651V109.84H46.518V109.651C47.976 109.435 48.462 108.949 48.462 107.032V93.5588C48.462 91.9118 48.003 91.3718 46.518 91.1288V90.9398H53.97ZM61.9603 110.38C59.5573 110.38 57.3703 109.786 55.6423 108.814L56.3983 103.387H56.5603C57.1543 107.221 59.4763 109.543 62.7703 109.543C64.9573 109.543 66.3883 108.328 66.3883 106.249C66.3883 104.71 65.5783 103.792 63.5533 102.928L60.1243 101.389C57.4243 100.174 55.9933 98.4188 55.9933 95.8808C55.9933 92.8568 58.1803 90.3998 62.6353 90.3998C64.4713 90.3998 66.6853 90.8588 68.4403 91.8038L67.5493 96.8528H67.3873C66.7663 93.0728 64.7683 91.2098 61.7713 91.2098C59.4493 91.2098 58.1803 92.3708 58.1803 94.0448C58.1803 95.5568 58.9633 96.3668 61.1233 97.3388L64.8223 99.0668C67.6033 100.309 68.7103 101.875 68.7103 104.305C68.7103 107.896 66.0913 110.38 61.9603 110.38ZM77.6747 101.632H75.7037V106.951C75.7037 108.868 76.2977 109.462 78.5387 109.651V109.84H70.1957V109.651C71.6537 109.435 72.1397 108.949 72.1397 107.032V93.5588C72.1397 91.9118 71.6807 91.3718 70.1957 91.1288V90.9398H77.6747C82.1027 90.9398 84.9647 92.6408 84.9647 96.2858C84.9647 99.9308 82.1027 101.632 77.6747 101.632ZM76.9457 91.5068H75.7037V101.065H76.9457C79.4837 101.065 81.1307 99.3908 81.1307 96.2858C81.1307 93.1538 79.4837 91.5068 76.9457 91.5068ZM94.9126 90.9398L100.664 107.032C101.312 108.814 101.771 109.381 103.013 109.651V109.84H95.3716V109.651C96.9646 109.327 97.2886 108.517 96.5866 106.438L95.3716 102.928H88.6486L87.3796 106.6C86.6776 108.652 87.4066 109.381 88.9456 109.651V109.84H83.7346V109.651C85.1386 109.354 85.7866 108.571 86.4886 106.573L92.0236 90.9398H94.9126ZM92.0236 93.1538L88.8916 102.253H95.1556L92.0236 93.1538ZM117.133 90.2918H117.268V97.4198H117.079C116.593 93.2888 115.108 91.6418 112.327 91.6418H111.382V106.951C111.382 108.868 112.003 109.462 114.217 109.651V109.84H105.01V109.651C107.251 109.462 107.845 108.868 107.845 106.951V91.6418H106.9C104.119 91.6418 102.634 93.2888 102.148 97.4198H101.986V90.2918H102.121C102.553 90.7778 103.282 90.9398 104.281 90.9398H114.946C115.945 90.9398 116.674 90.7778 117.133 90.2918ZM127.006 110.38C121.93 110.38 118.555 106.519 118.555 100.66C118.555 94.5308 122.308 90.3998 127.789 90.3998C129.895 90.3998 132.082 90.8588 133.891 91.6418L132.892 97.9868H132.676C132.406 93.8018 130.516 91.7498 127.006 91.7498C123.577 91.7498 121.39 94.3418 121.39 98.4188C121.39 103.738 124.495 107.41 128.896 107.41C131.677 107.41 133.27 106.249 133.918 103.819L134.134 103.9C133.297 108.166 130.894 110.38 127.006 110.38ZM154.67 90.9398V91.1288C153.212 91.3448 152.726 91.9388 152.726 93.6668V107.113C152.726 108.841 153.212 109.435 154.67 109.651V109.84H147.218V109.651C148.676 109.435 149.162 108.841 149.162 107.113V100.633H141.305V107.113C141.305 108.841 141.791 109.435 143.249 109.651V109.84H135.797V109.651C137.255 109.435 137.741 108.841 137.741 107.113V93.6668C137.741 91.9388 137.255 91.3448 135.797 91.1288V90.9398H143.249V91.1288C141.791 91.3448 141.305 91.9388 141.305 93.6668V99.9308H149.162V93.6668C149.162 91.9388 148.676 91.3448 147.218 91.1288V90.9398H154.67ZM172.29 110.11H172.182L165.405 93.3698L164.676 106.276C164.541 108.895 165.189 109.354 167.349 109.651V109.84H161.814V109.651C163.299 109.354 163.785 108.706 163.92 106.276L164.622 93.9368C164.73 91.9658 164.271 91.4258 162.759 91.1288V90.9398H168.24L173.694 104.467L179.148 90.9398H184.44V91.1288C182.982 91.3718 182.469 91.8848 182.577 94.0178L183.279 106.924C183.36 108.706 183.9 109.408 185.331 109.651V109.84H177.636V109.651C179.202 109.354 179.769 108.544 179.661 106.465L179.067 93.2618L172.29 110.11ZM200.916 102.685H201.078L200.376 109.84H186.633V109.651C188.091 109.435 188.577 108.949 188.577 107.032V93.5588C188.577 91.9118 188.118 91.3718 186.633 91.1288V90.9398H200.052L200.565 97.1498H200.376C199.404 93.3698 197.892 91.5068 194.544 91.5068H192.141V99.8498H193.761C196.083 99.8498 197.109 98.6618 197.595 96.3938H197.757V104.062H197.595C197.109 101.713 196.083 100.444 193.761 100.444H192.141V109.273H194.49C198.405 109.273 199.809 107.41 200.916 102.685ZM203.007 90.9398H210.594C216.777 90.9398 220.449 94.4768 220.449 100.363C220.449 106.546 216.399 109.84 210.621 109.84H203.007V109.651C204.465 109.435 204.951 108.949 204.951 107.032V93.5588C204.951 91.9118 204.492 91.3718 203.007 91.1288V90.9398ZM208.515 109.273H209.811C214.455 109.273 216.534 107.113 216.534 100.579C216.534 93.8558 214.347 91.5068 209.811 91.5068H208.515V109.273ZM229.312 90.9398V91.1288C227.827 91.3718 227.368 92.0198 227.368 93.5588V107.032C227.368 108.706 227.854 109.435 229.312 109.651V109.84H221.86V109.651C223.318 109.435 223.804 108.949 223.804 107.032V93.5588C223.804 91.9118 223.345 91.3718 221.86 91.1288V90.9398H229.312ZM241.514 90.9398L247.265 107.032C247.913 108.814 248.372 109.381 249.614 109.651V109.84H241.973V109.651C243.566 109.327 243.89 108.517 243.188 106.438L241.973 102.928H235.25L233.981 106.6C233.279 108.652 234.008 109.381 235.547 109.651V109.84H230.336V109.651C231.74 109.354 232.388 108.571 233.09 106.573L238.625 90.9398H241.514ZM238.625 93.1538L235.493 102.253H241.757L238.625 93.1538ZM264.616 110.38C259.54 110.38 256.165 106.519 256.165 100.66C256.165 94.5308 259.918 90.3998 265.399 90.3998C267.505 90.3998 269.692 90.8588 271.501 91.6418L270.502 97.9868H270.286C270.016 93.8018 268.126 91.7498 264.616 91.7498C261.187 91.7498 259 94.3418 259 98.4188C259 103.738 262.105 107.41 266.506 107.41C269.287 107.41 270.88 106.249 271.528 103.819L271.744 103.9C270.907 108.166 268.504 110.38 264.616 110.38ZM283.231 110.38C277.615 110.38 273.673 106.249 273.673 100.39C273.673 94.5308 277.615 90.3998 283.231 90.3998C288.847 90.3998 292.762 94.5308 292.762 100.39C292.762 106.249 288.847 110.38 283.231 110.38ZM283.231 109.597C286.876 109.597 288.766 106.519 288.766 100.39C288.766 94.1798 286.93 91.1828 283.231 91.1828C279.532 91.1828 277.696 94.1798 277.696 100.39C277.696 106.519 279.559 109.597 283.231 109.597ZM304.39 110.11H304.282L297.505 93.3698L296.776 106.276C296.641 108.895 297.289 109.354 299.449 109.651V109.84H293.914V109.651C295.399 109.354 295.885 108.706 296.02 106.276L296.722 93.9368C296.83 91.9658 296.371 91.4258 294.859 91.1288V90.9398H300.34L305.794 104.467L311.248 90.9398H316.54V91.1288C315.082 91.3718 314.569 91.8848 314.677 94.0178L315.379 106.924C315.46 108.706 316 109.408 317.431 109.651V109.84H309.736V109.651C311.302 109.354 311.869 108.544 311.761 106.465L311.167 93.2618L304.39 110.11ZM326.212 101.632H324.241V106.951C324.241 108.868 324.835 109.462 327.076 109.651V109.84H318.733V109.651C320.191 109.435 320.677 108.949 320.677 107.032V93.5588C320.677 91.9118 320.218 91.3718 318.733 91.1288V90.9398H326.212C330.64 90.9398 333.502 92.6408 333.502 96.2858C333.502 99.9308 330.64 101.632 326.212 101.632ZM325.483 91.5068H324.241V101.065H325.483C328.021 101.065 329.668 99.3908 329.668 96.2858C329.668 93.1538 328.021 91.5068 325.483 91.5068ZM343.45 90.9398L349.201 107.032C349.849 108.814 350.308 109.381 351.55 109.651V109.84H343.909V109.651C345.502 109.327 345.826 108.517 345.124 106.438L343.909 102.928H337.186L335.917 106.6C335.215 108.652 335.944 109.381 337.483 109.651V109.84H332.272V109.651C333.676 109.354 334.324 108.571 335.026 106.573L340.561 90.9398H343.45ZM340.561 93.1538L337.429 102.253H343.693L340.561 93.1538ZM365.631 91.1288V90.9398H371.328V91.1288C369.627 91.3448 368.979 92.1548 368.979 94.0988V110.11H368.871L355.776 93.9638V106.465C355.776 108.733 356.532 109.381 358.395 109.651V109.84H352.536V109.651C354.372 109.435 355.02 108.652 355.02 106.465V93.0458C354.318 92.2358 353.589 91.5338 352.536 91.1288V90.9398H357.99L368.25 103.468V94.0988C368.25 92.1008 367.629 91.4258 365.631 91.1288ZM384.289 91.1288V90.9398H389.446V91.1288C388.42 91.2098 387.394 92.0738 386.449 93.8288L382.507 101.065V107.329C382.588 108.922 383.263 109.462 385.315 109.651V109.84H376.108V109.651C378.349 109.462 378.943 108.868 378.943 106.951V101.173L374.893 93.6668C373.948 91.9118 373.219 91.2098 372.112 91.1288V90.9398H379.942V91.1288C378.781 91.2368 378.187 91.7768 378.187 92.5868C378.187 92.9918 378.322 93.4238 378.673 94.0988L382.102 100.39L385.45 94.3418C385.828 93.6668 385.99 93.0998 385.99 92.6408C385.99 91.7768 385.423 91.2368 384.289 91.1288Z" fill="#031D42"></path>
</svg>