<svg width="128" height="24" viewBox="0 0 128 24" fill="none" xmlns="http://www.w3.org/2000/svg">
  <path fill-rule="evenodd" clip-rule="evenodd" d="M75.0625 6.53311V5.14474H72.2999V18.3346H75.0625V9.87784C75.0625 8.48947 75.922 7.98474 77.7635 7.98474H80.1583V5.14474H78.807C76.9655 5.14474 75.7381 5.52365 75.0625 6.53311ZM67.0202 0.726562H64.2576V5.14474H61.6181V7.8582H64.2576V13.9804C64.2576 17.0727 66.4676 18.3346 69.4142 18.3346H70.5808V15.6211H69.8443C68.0028 15.6211 67.0202 15.1164 67.0202 13.3491V7.8582H70.5808V5.14474H67.0202V0.726562ZM81.8767 18.3346H84.6393V5.14402H81.8767V18.3346ZM81.8767 3.56656H84.6393V0.726562H81.8767V3.56656ZM104.53 10.5724C104.837 8.80511 106.249 7.48002 108.029 7.48002C110.117 7.48002 111.344 8.74184 111.713 10.5724H104.53ZM108.152 4.70256C104.223 4.70256 101.522 7.60583 101.522 11.7084C101.522 15.8735 104.162 18.7767 108.521 18.7767C110.792 18.7767 112.879 17.8931 114.046 15.8102L111.59 14.5484C110.915 15.5578 109.564 16.0626 108.459 16.0626C106.433 16.0626 104.899 14.9266 104.592 13.16H114.598C115.151 8.55274 112.634 4.70256 108.152 4.70256ZM93.6642 4.70256C91.8836 4.70256 90.1645 5.33384 89.2441 6.53311V5.14474H86.4815V23.5098H89.2441V17.0095C90.1645 18.0822 92.0067 18.7767 93.6642 18.7767C97.4088 18.7767 100.171 16.2524 100.171 11.7084C100.171 7.22765 97.4703 4.70256 93.6642 4.70256ZM93.2956 16.0626C91.0856 16.0626 89.2441 14.4851 89.2441 11.7709C89.2441 9.12074 91.0856 7.48002 93.2956 7.48002C95.7512 7.48002 97.2857 9.12074 97.2857 11.7709C97.2857 14.4851 95.7512 16.0626 93.2956 16.0626ZM55.1795 10.3826C53.1534 10.1935 52.0484 9.75202 52.0484 8.67856C52.0484 7.54256 53.7675 7.35347 54.8725 7.35347C56.223 7.35347 57.4512 7.8582 58.0037 8.74184L60.4593 7.66911C59.6613 5.96511 57.4512 4.70256 54.811 4.70256C52.1099 4.70256 49.2858 5.96511 49.2858 8.80511C49.2858 11.5186 51.4958 12.592 54.4431 12.9077C57.2057 13.2226 57.9422 13.4749 57.9422 14.6109C57.9422 15.4946 56.8987 16.1891 55.0565 16.1891C53.1534 16.1891 51.926 15.2422 51.3735 14.4218L49.0403 15.8102C49.8998 17.704 52.1715 18.7767 55.118 18.7767C58.3107 18.7767 60.7047 17.3251 60.7047 14.5484C60.7047 11.6451 58.5562 10.6982 55.1795 10.3826ZM122.029 10.3826C120.003 10.1935 118.898 9.75202 118.898 8.67856C118.898 7.54256 120.617 7.35347 121.722 7.35347C123.072 7.35347 124.3 7.8582 124.852 8.74184L127.308 7.66911C126.51 5.96511 124.3 4.70256 121.66 4.70256C118.959 4.70256 116.135 5.96511 116.135 8.80511C116.135 11.5186 118.345 12.592 121.292 12.9077C124.054 13.2226 124.791 13.4749 124.791 14.6109C124.791 15.4946 123.747 16.1891 121.906 16.1891C120.003 16.1891 118.775 15.2422 118.222 14.4218L115.89 15.8102C116.749 17.704 119.02 18.7767 121.967 18.7767C125.159 18.7767 127.554 17.3251 127.554 14.5484C127.554 11.6451 125.405 10.6982 122.029 10.3826Z" fill="#202524"></path>
  <path fill-rule="evenodd" clip-rule="evenodd" d="M9.7231 2.22754L-0.00012207 22.0115H2.36843L11.01 2.22754H9.7231Z" fill="#202524"></path>
  <path fill-rule="evenodd" clip-rule="evenodd" d="M13.5876 2.22656L7.10596 22.012H10.6595L15.5204 2.22656H13.5876Z" fill="#202524"></path>
  <path fill-rule="evenodd" clip-rule="evenodd" d="M15.3964 22.011H20.1335L20.674 2.22559H18.0974L15.3964 22.011Z" fill="#202524"></path>
  <path fill-rule="evenodd" clip-rule="evenodd" d="M23.2511 2.22656L24.8719 22.012H30.7932L26.4721 2.22656H23.2511Z" fill="#202524"></path>
  <path fill-rule="evenodd" clip-rule="evenodd" d="M32.9137 2.22656H29.0482L35.5306 22.012H42.6377L32.9137 2.22656Z" fill="#202524"></path>
</svg>