<svg xmlns="http://www.w3.org/2000/svg" viewBox="0 0 117 138">
  <path d="M116.586 68.2475C116.586 42.5173 101.929 24.1534 76.2597 24.1534C60.021 24.1852 48.5412 31.7506 43.9095 43.242C41.9631 49.796 37.2043 52.5912 29.3392 52.6788C18.336 52.6788 12.2346 45.3284 12.2346 31.8541C12.2346 18.3798 18.344 11.0295 29.3392 11.0295C38.8727 11.0295 42.5987 15.6882 43.9095 20.4663L45.4984 22.059H54.587L56.1759 20.4663C54.8094 9.58809 46.2452 0 29.3313 0C11.0032 0 0 12.2559 0 31.8541C0 46.8017 6.4033 57.4728 17.5813 61.7014L18.2407 63.8357C12.2425 71.5125 9.04884 81.9049 9.04884 93.898C9.04884 119.628 23.7065 138 49.3754 138C68.8951 138.008 79.7791 127.194 83.0523 113.695C83.0682 113.64 84.7286 111.625 84.7286 111.625L85.674 111.45C105.472 107.46 116.586 90.6489 116.586 68.2554V68.2475ZM76.2597 101.336C63.0082 101.336 56.883 94.2006 54.3645 85.7752L52.7756 84.1825H43.6871L42.0982 85.7752C44.3624 98.5805 53.157 109.443 69.2844 111.856L70.4284 113.799C67.4969 121.141 61.3557 126.978 49.3754 126.978C31.0473 126.978 21.2676 113.496 21.2676 93.898C21.2676 74.2997 31.0473 60.8175 49.3754 60.8175C61.4272 60.8175 68.7203 66.7742 71.2705 75.1598L72.8515 76.7445H81.9401L83.5369 75.1598C81.2568 62.3544 71.4771 52.3921 55.9137 50.218L54.7935 48.267C58.4083 38.424 67.6319 35.1669 76.2597 35.1669C94.5878 35.1669 104.368 48.6492 104.368 68.2475C104.368 87.8457 94.5878 101.328 76.2597 101.328V101.336Z" fill="#000000"/>
</svg>
