<svg width="187" height="220" viewBox="0 0 187 220" fill="none" xmlns="http://www.w3.org/2000/svg">
<path d="M186.306 108.8C186.306 67.7812 162.883 38.5054 121.864 38.5054C95.9144 38.5562 77.5694 50.6169 70.1679 68.9365C67.0575 79.3848 59.4529 83.841 46.8844 83.9806C29.3012 83.9806 19.551 72.2627 19.551 50.7819C19.551 29.3012 29.3139 17.5832 46.8844 17.5832C62.119 17.5832 68.0732 25.0101 70.1679 32.6274L72.707 35.1665H87.2307L89.7697 32.6274C87.5861 15.2854 73.9004 0 46.8717 0C17.5832 0 0 19.5383 0 50.7819C0 74.6114 10.2326 91.6233 28.0951 98.3646L29.1488 101.767C19.5637 114.005 14.4602 130.573 14.4602 149.692C14.4602 190.712 37.8833 220 78.9024 220C110.095 220.013 127.488 202.772 132.719 181.253C132.744 181.165 135.397 177.953 135.397 177.953L136.908 177.673C168.545 171.313 186.306 144.513 186.306 108.813V108.8ZM121.864 161.55C100.688 161.55 90.8996 150.175 86.8752 136.743L84.3361 134.204H69.8125L67.2734 136.743C70.8916 157.157 84.9455 174.474 110.717 178.321L112.545 181.418C107.861 193.124 98.0472 202.429 78.9024 202.429C49.6139 202.429 33.9858 180.936 33.9858 149.692C33.9858 118.449 49.6139 96.9554 78.9024 96.9554C98.1615 96.9554 109.816 106.452 113.891 119.82L116.418 122.346H130.941L133.493 119.82C129.849 99.4056 114.221 83.5236 89.3508 80.0577L87.5607 76.9473C93.3372 61.2557 108.077 56.0633 121.864 56.0633C151.152 56.0633 166.781 77.5567 166.781 108.8C166.781 140.044 151.152 161.537 121.864 161.537V161.55Z" fill="#F8F8F8"/>
</svg>
